<mxfile host="app.diagrams.net" modified="2023-03-03T12:58:41.692Z" agent="5.0 (Macintosh; Intel Mac OS X 10_15_7) AppleWebKit/537.36 (KHTML, like Gecko) Chrome/110.0.0.0 Safari/537.36" etag="4dV46B17Txmb3OQZeFo3" version="20.8.23" type="github">
  <diagram id="C5RBs43oDa-KdzZeNtuy" name="Page-1">
    <mxGraphModel dx="3723" dy="796" grid="1" gridSize="10" guides="1" tooltips="1" connect="1" arrows="1" fold="1" page="1" pageScale="1" pageWidth="827" pageHeight="1169" math="0" shadow="0">
      <root>
        <mxCell id="WIyWlLk6GJQsqaUBKTNV-0" />
        <mxCell id="WIyWlLk6GJQsqaUBKTNV-1" parent="WIyWlLk6GJQsqaUBKTNV-0" />
        <mxCell id="NYKQPOSVk5PSvudZOdbd-0" value="" style="edgeStyle=orthogonalEdgeStyle;rounded=0;orthogonalLoop=1;jettySize=auto;html=1;" edge="1" parent="WIyWlLk6GJQsqaUBKTNV-1" source="NYKQPOSVk5PSvudZOdbd-1" target="NYKQPOSVk5PSvudZOdbd-3">
          <mxGeometry relative="1" as="geometry" />
        </mxCell>
        <mxCell id="NYKQPOSVk5PSvudZOdbd-1" value="开始" style="rounded=1;whiteSpace=wrap;html=1;" vertex="1" parent="WIyWlLk6GJQsqaUBKTNV-1">
          <mxGeometry x="-1840" y="290" width="120" height="60" as="geometry" />
        </mxCell>
        <mxCell id="NYKQPOSVk5PSvudZOdbd-2" value="" style="edgeStyle=orthogonalEdgeStyle;rounded=0;orthogonalLoop=1;jettySize=auto;html=1;" edge="1" parent="WIyWlLk6GJQsqaUBKTNV-1" source="NYKQPOSVk5PSvudZOdbd-3" target="NYKQPOSVk5PSvudZOdbd-7">
          <mxGeometry relative="1" as="geometry" />
        </mxCell>
        <mxCell id="NYKQPOSVk5PSvudZOdbd-3" value="获取&amp;nbsp;opportunity_mining 数据表" style="rounded=0;whiteSpace=wrap;html=1;" vertex="1" parent="WIyWlLk6GJQsqaUBKTNV-1">
          <mxGeometry x="-1840" y="438" width="120" height="60" as="geometry" />
        </mxCell>
        <mxCell id="NYKQPOSVk5PSvudZOdbd-4" style="edgeStyle=orthogonalEdgeStyle;rounded=0;orthogonalLoop=1;jettySize=auto;html=1;entryX=0.5;entryY=0;entryDx=0;entryDy=0;" edge="1" parent="WIyWlLk6GJQsqaUBKTNV-1" source="NYKQPOSVk5PSvudZOdbd-7" target="NYKQPOSVk5PSvudZOdbd-9">
          <mxGeometry relative="1" as="geometry" />
        </mxCell>
        <mxCell id="NYKQPOSVk5PSvudZOdbd-5" value="否" style="edgeLabel;html=1;align=center;verticalAlign=middle;resizable=0;points=[];" vertex="1" connectable="0" parent="NYKQPOSVk5PSvudZOdbd-4">
          <mxGeometry x="0.1383" y="-1" relative="1" as="geometry">
            <mxPoint as="offset" />
          </mxGeometry>
        </mxCell>
        <mxCell id="NYKQPOSVk5PSvudZOdbd-6" style="edgeStyle=orthogonalEdgeStyle;rounded=0;orthogonalLoop=1;jettySize=auto;html=1;" edge="1" parent="WIyWlLk6GJQsqaUBKTNV-1" source="NYKQPOSVk5PSvudZOdbd-7" target="NYKQPOSVk5PSvudZOdbd-14">
          <mxGeometry relative="1" as="geometry" />
        </mxCell>
        <mxCell id="NYKQPOSVk5PSvudZOdbd-7" value="判断对应订单是否存在" style="rhombus;whiteSpace=wrap;html=1;" vertex="1" parent="WIyWlLk6GJQsqaUBKTNV-1">
          <mxGeometry x="-1820" y="573" width="80" height="80" as="geometry" />
        </mxCell>
        <mxCell id="NYKQPOSVk5PSvudZOdbd-8" value="" style="edgeStyle=orthogonalEdgeStyle;rounded=0;orthogonalLoop=1;jettySize=auto;html=1;" edge="1" parent="WIyWlLk6GJQsqaUBKTNV-1" source="NYKQPOSVk5PSvudZOdbd-9" target="NYKQPOSVk5PSvudZOdbd-16">
          <mxGeometry relative="1" as="geometry" />
        </mxCell>
        <mxCell id="NYKQPOSVk5PSvudZOdbd-9" value="获取1inch、gecko价格确定是否存在价格优势" style="rounded=0;whiteSpace=wrap;html=1;" vertex="1" parent="WIyWlLk6GJQsqaUBKTNV-1">
          <mxGeometry x="-2000" y="747" width="120" height="60" as="geometry" />
        </mxCell>
        <mxCell id="NYKQPOSVk5PSvudZOdbd-10" value="" style="edgeStyle=orthogonalEdgeStyle;rounded=0;orthogonalLoop=1;jettySize=auto;html=1;" edge="1" parent="WIyWlLk6GJQsqaUBKTNV-1" source="NYKQPOSVk5PSvudZOdbd-14" target="NYKQPOSVk5PSvudZOdbd-24">
          <mxGeometry relative="1" as="geometry" />
        </mxCell>
        <mxCell id="NYKQPOSVk5PSvudZOdbd-11" value="没有，那么外面跌的比较多" style="edgeLabel;html=1;align=center;verticalAlign=middle;resizable=0;points=[];" vertex="1" connectable="0" parent="NYKQPOSVk5PSvudZOdbd-10">
          <mxGeometry x="-0.0779" relative="1" as="geometry">
            <mxPoint as="offset" />
          </mxGeometry>
        </mxCell>
        <mxCell id="NYKQPOSVk5PSvudZOdbd-12" style="edgeStyle=orthogonalEdgeStyle;rounded=0;orthogonalLoop=1;jettySize=auto;html=1;entryX=0.5;entryY=0;entryDx=0;entryDy=0;" edge="1" parent="WIyWlLk6GJQsqaUBKTNV-1" source="NYKQPOSVk5PSvudZOdbd-14" target="NYKQPOSVk5PSvudZOdbd-35">
          <mxGeometry relative="1" as="geometry" />
        </mxCell>
        <mxCell id="NYKQPOSVk5PSvudZOdbd-13" value="有，但是利润空间可能会有变化或高或低" style="edgeLabel;html=1;align=center;verticalAlign=middle;resizable=0;points=[];" vertex="1" connectable="0" parent="NYKQPOSVk5PSvudZOdbd-12">
          <mxGeometry x="0.5599" y="1" relative="1" as="geometry">
            <mxPoint as="offset" />
          </mxGeometry>
        </mxCell>
        <mxCell id="NYKQPOSVk5PSvudZOdbd-14" value="获取1inch、gecko价格确定是否执行订单委托，以保证优势这里对比价格优势是和委托价进行对比" style="rounded=0;whiteSpace=wrap;html=1;" vertex="1" parent="WIyWlLk6GJQsqaUBKTNV-1">
          <mxGeometry x="-1507.5" y="747" width="255" height="60" as="geometry" />
        </mxCell>
        <mxCell id="NYKQPOSVk5PSvudZOdbd-15" style="edgeStyle=orthogonalEdgeStyle;rounded=0;orthogonalLoop=1;jettySize=auto;html=1;" edge="1" parent="WIyWlLk6GJQsqaUBKTNV-1" source="NYKQPOSVk5PSvudZOdbd-16" target="NYKQPOSVk5PSvudZOdbd-18">
          <mxGeometry relative="1" as="geometry" />
        </mxCell>
        <mxCell id="NYKQPOSVk5PSvudZOdbd-16" value="计算委托价格，按照利润率计算出订单信息然后下单" style="rounded=0;whiteSpace=wrap;html=1;" vertex="1" parent="WIyWlLk6GJQsqaUBKTNV-1">
          <mxGeometry x="-2000" y="894" width="120" height="60" as="geometry" />
        </mxCell>
        <mxCell id="NYKQPOSVk5PSvudZOdbd-17" value="" style="edgeStyle=orthogonalEdgeStyle;rounded=0;orthogonalLoop=1;jettySize=auto;html=1;" edge="1" parent="WIyWlLk6GJQsqaUBKTNV-1" source="NYKQPOSVk5PSvudZOdbd-18" target="NYKQPOSVk5PSvudZOdbd-19">
          <mxGeometry relative="1" as="geometry" />
        </mxCell>
        <mxCell id="NYKQPOSVk5PSvudZOdbd-18" value="将数据信息存入 market_order表" style="rounded=0;whiteSpace=wrap;html=1;" vertex="1" parent="WIyWlLk6GJQsqaUBKTNV-1">
          <mxGeometry x="-2000" y="1058" width="120" height="60" as="geometry" />
        </mxCell>
        <mxCell id="NYKQPOSVk5PSvudZOdbd-19" value="结束" style="ellipse;whiteSpace=wrap;html=1;" vertex="1" parent="WIyWlLk6GJQsqaUBKTNV-1">
          <mxGeometry x="-1985" y="1222" width="90" height="56" as="geometry" />
        </mxCell>
        <mxCell id="NYKQPOSVk5PSvudZOdbd-20" value="" style="edgeStyle=orthogonalEdgeStyle;rounded=0;orthogonalLoop=1;jettySize=auto;html=1;" edge="1" parent="WIyWlLk6GJQsqaUBKTNV-1" source="NYKQPOSVk5PSvudZOdbd-24" target="NYKQPOSVk5PSvudZOdbd-26">
          <mxGeometry relative="1" as="geometry" />
        </mxCell>
        <mxCell id="NYKQPOSVk5PSvudZOdbd-21" value="未成交" style="edgeLabel;html=1;align=center;verticalAlign=middle;resizable=0;points=[];" vertex="1" connectable="0" parent="NYKQPOSVk5PSvudZOdbd-20">
          <mxGeometry x="-0.0778" y="-2" relative="1" as="geometry">
            <mxPoint y="1" as="offset" />
          </mxGeometry>
        </mxCell>
        <mxCell id="NYKQPOSVk5PSvudZOdbd-22" style="edgeStyle=orthogonalEdgeStyle;rounded=0;orthogonalLoop=1;jettySize=auto;html=1;entryX=1;entryY=0.5;entryDx=0;entryDy=0;" edge="1" parent="WIyWlLk6GJQsqaUBKTNV-1" source="NYKQPOSVk5PSvudZOdbd-24" target="NYKQPOSVk5PSvudZOdbd-44">
          <mxGeometry relative="1" as="geometry" />
        </mxCell>
        <mxCell id="NYKQPOSVk5PSvudZOdbd-23" value="已成交或部分成交" style="edgeLabel;html=1;align=center;verticalAlign=middle;resizable=0;points=[];" vertex="1" connectable="0" parent="NYKQPOSVk5PSvudZOdbd-22">
          <mxGeometry x="0.0235" y="-1" relative="1" as="geometry">
            <mxPoint as="offset" />
          </mxGeometry>
        </mxCell>
        <mxCell id="NYKQPOSVk5PSvudZOdbd-24" value="是否已经成交" style="rhombus;whiteSpace=wrap;html=1;" vertex="1" parent="WIyWlLk6GJQsqaUBKTNV-1">
          <mxGeometry x="-1420" y="884" width="80" height="80" as="geometry" />
        </mxCell>
        <mxCell id="NYKQPOSVk5PSvudZOdbd-25" value="" style="edgeStyle=orthogonalEdgeStyle;rounded=0;orthogonalLoop=1;jettySize=auto;html=1;" edge="1" parent="WIyWlLk6GJQsqaUBKTNV-1" source="NYKQPOSVk5PSvudZOdbd-26" target="NYKQPOSVk5PSvudZOdbd-28">
          <mxGeometry relative="1" as="geometry" />
        </mxCell>
        <mxCell id="NYKQPOSVk5PSvudZOdbd-26" value="撤单" style="rounded=0;whiteSpace=wrap;html=1;" vertex="1" parent="WIyWlLk6GJQsqaUBKTNV-1">
          <mxGeometry x="-1440" y="1054" width="120" height="60" as="geometry" />
        </mxCell>
        <mxCell id="NYKQPOSVk5PSvudZOdbd-27" value="" style="edgeStyle=orthogonalEdgeStyle;rounded=0;orthogonalLoop=1;jettySize=auto;html=1;" edge="1" parent="WIyWlLk6GJQsqaUBKTNV-1" source="NYKQPOSVk5PSvudZOdbd-28" target="NYKQPOSVk5PSvudZOdbd-29">
          <mxGeometry relative="1" as="geometry" />
        </mxCell>
        <mxCell id="NYKQPOSVk5PSvudZOdbd-28" value="更新 market_order 和 opportunity_mining 数据设为关闭状态" style="rounded=0;whiteSpace=wrap;html=1;" vertex="1" parent="WIyWlLk6GJQsqaUBKTNV-1">
          <mxGeometry x="-1440" y="1220" width="120" height="60" as="geometry" />
        </mxCell>
        <mxCell id="NYKQPOSVk5PSvudZOdbd-29" value="结束" style="ellipse;whiteSpace=wrap;html=1;" vertex="1" parent="WIyWlLk6GJQsqaUBKTNV-1">
          <mxGeometry x="-1425" y="1367" width="90" height="56" as="geometry" />
        </mxCell>
        <mxCell id="NYKQPOSVk5PSvudZOdbd-30" style="edgeStyle=orthogonalEdgeStyle;rounded=0;orthogonalLoop=1;jettySize=auto;html=1;entryX=1;entryY=0.5;entryDx=0;entryDy=0;" edge="1" parent="WIyWlLk6GJQsqaUBKTNV-1" source="NYKQPOSVk5PSvudZOdbd-35" target="NYKQPOSVk5PSvudZOdbd-26">
          <mxGeometry relative="1" as="geometry" />
        </mxCell>
        <mxCell id="NYKQPOSVk5PSvudZOdbd-31" value="未成交" style="edgeLabel;html=1;align=center;verticalAlign=middle;resizable=0;points=[];" vertex="1" connectable="0" parent="NYKQPOSVk5PSvudZOdbd-30">
          <mxGeometry x="0.1621" y="1" relative="1" as="geometry">
            <mxPoint as="offset" />
          </mxGeometry>
        </mxCell>
        <mxCell id="NYKQPOSVk5PSvudZOdbd-32" value="全部成交" style="edgeStyle=orthogonalEdgeStyle;rounded=0;orthogonalLoop=1;jettySize=auto;html=1;entryX=0.5;entryY=0;entryDx=0;entryDy=0;" edge="1" parent="WIyWlLk6GJQsqaUBKTNV-1" source="NYKQPOSVk5PSvudZOdbd-35" target="NYKQPOSVk5PSvudZOdbd-37">
          <mxGeometry relative="1" as="geometry">
            <mxPoint x="-1030" y="1048" as="targetPoint" />
          </mxGeometry>
        </mxCell>
        <mxCell id="NYKQPOSVk5PSvudZOdbd-33" value="" style="edgeStyle=orthogonalEdgeStyle;rounded=0;orthogonalLoop=1;jettySize=auto;html=1;entryX=0;entryY=0.5;entryDx=0;entryDy=0;" edge="1" parent="WIyWlLk6GJQsqaUBKTNV-1" source="NYKQPOSVk5PSvudZOdbd-35" target="NYKQPOSVk5PSvudZOdbd-42">
          <mxGeometry relative="1" as="geometry">
            <mxPoint x="-830" y="934" as="targetPoint" />
          </mxGeometry>
        </mxCell>
        <mxCell id="NYKQPOSVk5PSvudZOdbd-34" value="部分成交" style="edgeLabel;html=1;align=center;verticalAlign=middle;resizable=0;points=[];" vertex="1" connectable="0" parent="NYKQPOSVk5PSvudZOdbd-33">
          <mxGeometry x="0.06" y="1" relative="1" as="geometry">
            <mxPoint as="offset" />
          </mxGeometry>
        </mxCell>
        <mxCell id="NYKQPOSVk5PSvudZOdbd-35" value="是否已经成交" style="rhombus;whiteSpace=wrap;html=1;" vertex="1" parent="WIyWlLk6GJQsqaUBKTNV-1">
          <mxGeometry x="-1070" y="894" width="80" height="80" as="geometry" />
        </mxCell>
        <mxCell id="NYKQPOSVk5PSvudZOdbd-36" value="" style="edgeStyle=orthogonalEdgeStyle;rounded=0;orthogonalLoop=1;jettySize=auto;html=1;" edge="1" parent="WIyWlLk6GJQsqaUBKTNV-1" source="NYKQPOSVk5PSvudZOdbd-37" target="NYKQPOSVk5PSvudZOdbd-39">
          <mxGeometry relative="1" as="geometry" />
        </mxCell>
        <mxCell id="NYKQPOSVk5PSvudZOdbd-37" value="转账卖出流程" style="rounded=0;whiteSpace=wrap;html=1;" vertex="1" parent="WIyWlLk6GJQsqaUBKTNV-1">
          <mxGeometry x="-1090" y="1054" width="120" height="60" as="geometry" />
        </mxCell>
        <mxCell id="NYKQPOSVk5PSvudZOdbd-38" value="" style="edgeStyle=orthogonalEdgeStyle;rounded=0;orthogonalLoop=1;jettySize=auto;html=1;" edge="1" parent="WIyWlLk6GJQsqaUBKTNV-1" source="NYKQPOSVk5PSvudZOdbd-39" target="NYKQPOSVk5PSvudZOdbd-40">
          <mxGeometry relative="1" as="geometry" />
        </mxCell>
        <mxCell id="NYKQPOSVk5PSvudZOdbd-39" value="记录转账数据到&lt;br&gt;sell_book" style="rounded=0;whiteSpace=wrap;html=1;" vertex="1" parent="WIyWlLk6GJQsqaUBKTNV-1">
          <mxGeometry x="-1090" y="1218" width="120" height="60" as="geometry" />
        </mxCell>
        <mxCell id="NYKQPOSVk5PSvudZOdbd-40" value="结束" style="ellipse;whiteSpace=wrap;html=1;" vertex="1" parent="WIyWlLk6GJQsqaUBKTNV-1">
          <mxGeometry x="-1075" y="1367" width="90" height="56" as="geometry" />
        </mxCell>
        <mxCell id="NYKQPOSVk5PSvudZOdbd-41" style="edgeStyle=orthogonalEdgeStyle;rounded=0;orthogonalLoop=1;jettySize=auto;html=1;entryX=1;entryY=0.5;entryDx=0;entryDy=0;" edge="1" parent="WIyWlLk6GJQsqaUBKTNV-1" source="NYKQPOSVk5PSvudZOdbd-42" target="NYKQPOSVk5PSvudZOdbd-40">
          <mxGeometry relative="1" as="geometry">
            <Array as="points">
              <mxPoint x="-710" y="1395" />
            </Array>
          </mxGeometry>
        </mxCell>
        <mxCell id="NYKQPOSVk5PSvudZOdbd-42" value="修改订单（取消原来的订单建立新订单）需要主要新订单的单数要小于旧订单因为已经成交了一部分" style="rounded=0;whiteSpace=wrap;html=1;" vertex="1" parent="WIyWlLk6GJQsqaUBKTNV-1">
          <mxGeometry x="-810" y="904" width="200" height="60" as="geometry" />
        </mxCell>
        <mxCell id="NYKQPOSVk5PSvudZOdbd-43" value="" style="edgeStyle=orthogonalEdgeStyle;rounded=0;orthogonalLoop=1;jettySize=auto;html=1;" edge="1" parent="WIyWlLk6GJQsqaUBKTNV-1" source="NYKQPOSVk5PSvudZOdbd-44" target="NYKQPOSVk5PSvudZOdbd-46">
          <mxGeometry relative="1" as="geometry" />
        </mxCell>
        <mxCell id="NYKQPOSVk5PSvudZOdbd-44" value="如果部分成交撤掉当前订单" style="rounded=0;whiteSpace=wrap;html=1;" vertex="1" parent="WIyWlLk6GJQsqaUBKTNV-1">
          <mxGeometry x="-1710" y="894" width="120" height="60" as="geometry" />
        </mxCell>
        <mxCell id="NYKQPOSVk5PSvudZOdbd-45" value="" style="edgeStyle=orthogonalEdgeStyle;rounded=0;orthogonalLoop=1;jettySize=auto;html=1;" edge="1" parent="WIyWlLk6GJQsqaUBKTNV-1" source="NYKQPOSVk5PSvudZOdbd-46" target="NYKQPOSVk5PSvudZOdbd-48">
          <mxGeometry relative="1" as="geometry" />
        </mxCell>
        <mxCell id="NYKQPOSVk5PSvudZOdbd-46" value="以成本价反向卖出挂单" style="rounded=0;whiteSpace=wrap;html=1;" vertex="1" parent="WIyWlLk6GJQsqaUBKTNV-1">
          <mxGeometry x="-1710" y="1054" width="120" height="60" as="geometry" />
        </mxCell>
        <mxCell id="NYKQPOSVk5PSvudZOdbd-47" style="edgeStyle=orthogonalEdgeStyle;rounded=0;orthogonalLoop=1;jettySize=auto;html=1;entryX=0;entryY=0.5;entryDx=0;entryDy=0;" edge="1" parent="WIyWlLk6GJQsqaUBKTNV-1" source="NYKQPOSVk5PSvudZOdbd-48" target="NYKQPOSVk5PSvudZOdbd-29">
          <mxGeometry relative="1" as="geometry">
            <Array as="points">
              <mxPoint x="-1650" y="1395" />
            </Array>
          </mxGeometry>
        </mxCell>
        <mxCell id="NYKQPOSVk5PSvudZOdbd-48" value="将挂单数据记录到&lt;br&gt;market_order" style="rounded=0;whiteSpace=wrap;html=1;" vertex="1" parent="WIyWlLk6GJQsqaUBKTNV-1">
          <mxGeometry x="-1710" y="1224" width="120" height="60" as="geometry" />
        </mxCell>
      </root>
    </mxGraphModel>
  </diagram>
</mxfile>
